<?xml version="1.0" encoding="UTF-8" standalone="no"?>
<svg width="40px" height="21px" viewBox="0 0 40 21" version="1.1" xmlns="http://www.w3.org/2000/svg" xmlns:xlink="http://www.w3.org/1999/xlink">
    <!-- Generator: Sketch 43.2 (39069) - http://www.bohemiancoding.com/sketch -->
    <title>eye-icon</title>
    <desc>Created with Sketch.</desc>
    <defs></defs>
    <g id="Page-1" stroke="none" stroke-width="1" fill="none" fill-rule="evenodd">
        <g id="manual-intro" transform="translate(-466.000000, -81.000000)" fill="#E2013E">
            <g id="nav-bar">
                <g id="eye-icon" transform="translate(466.000000, 81.000000)">
                    <g>
                        <path d="M20.5882353,11.6666667 C20.2629412,11.6666667 20,11.4059167 20,11.0833333 C20,10.76075 20.2629412,10.5 20.5882353,10.5 C20.9135294,10.5 21.1764706,10.76075 21.1764706,11.0833333 C21.1764706,11.4059167 20.9135294,11.6666667 20.5882353,11.6666667 M20,8.16666667 C18.7005882,8.16666667 17.6470588,9.21141667 17.6470588,10.5 C17.6470588,11.7885833 18.7005882,12.8333333 20,12.8333333 C21.2994118,12.8333333 22.3529412,11.7885833 22.3529412,10.5 C22.3529412,9.21141667 21.2994118,8.16666667 20,8.16666667" id="Fill-4"></path>
                        <path d="M20,16.7748 C16.5285714,16.7748 13.7142857,13.9795297 13.7142857,10.5315568 C13.7142857,7.08358378 16.5285714,4.28831351 20,4.28831351 C23.4714286,4.28831351 26.2857143,7.08358378 26.2857143,10.5315568 C26.2857143,13.9795297 23.4714286,16.7748 20,16.7748 M39.0394286,8.7755027 C34.856,5.36328649 26.1508571,0.0633405405 20,0.0633405405 C13.8491429,0.0633405405 5.144,5.36328649 0.960571429,8.7755027 C-0.342285714,9.83798919 -0.316,11.8210703 1.01485714,12.8478 C5.21942857,16.0914486 13.8754286,20.999773 20,20.999773 C26.1245714,20.999773 34.7805714,16.0914486 38.9851429,12.8478 C40.316,11.8210703 40.3422857,9.83798919 39.0394286,8.7755027" id="Fill-1"></path>
                    </g>
                </g>
            </g>
        </g>
    </g>
</svg>