<?xml version="1.0" encoding="utf-8"?>
<!-- Generator: Adobe Illustrator 21.1.0, SVG Export Plug-In . SVG Version: 6.00 Build 0)  -->
<svg version="1.1" xmlns="http://www.w3.org/2000/svg" xmlns:xlink="http://www.w3.org/1999/xlink" x="0px" y="0px"
	 viewBox="0 0 205.3 205.3" style="enable-background:new 0 0 205.3 205.3;" xml:space="preserve">
<style type="text/css">
	.st0{fill:#D8D9DA;stroke:#B1B3B6;stroke-width:4;stroke-miterlimit:10;}
	.st1{fill:#FFFFFF;stroke:#B2B4B6;stroke-width:4;stroke-miterlimit:10;}
	.st2{fill:#B2B4B6;}
	.st3{fill:#DCDDDE;}
	.st4{fill:none;stroke:#CFD1D2;stroke-linecap:round;stroke-linejoin:round;stroke-miterlimit:10;}
	.st5{fill:#FFFFFF;}
	.st6{fill:#FDE9DC;}
	.st7{fill:#2C152B;}
	.st8{fill:#009876;}
	.st9{fill:#2D142C;}
	.st10{fill-rule:evenodd;clip-rule:evenodd;fill:#FDE9DC;}
	.st11{fill-rule:evenodd;clip-rule:evenodd;fill:#2D142C;}
	.st12{fill:none;stroke:#2C152B;stroke-width:9;stroke-miterlimit:10;}
	.st13{fill:#CC1F3A;}
	.st14{fill:#F9A120;}
	.st15{fill:#F36C44;}
	.st16{fill-rule:evenodd;clip-rule:evenodd;fill:#CC1F3A;}
</style>
<g id="Layer_1">
	<g>
		<g>
			<path class="st6" d="M102.7,201.3C48.3,201.3,4,157.1,4,102.7S48.3,4,102.7,4s98.7,44.3,98.7,98.7S157.1,201.3,102.7,201.3z"/>
		</g>
		<path class="st12" d="M132.1,145.9c14.3-9.7,23.6-26.1,23.6-44.7c0-29.8-24.2-54-54-54s-54,24.2-54,54c0,18.7,9.5,35.2,24,44.9"/>
		<g>
			<path class="st13" d="M101.7,47.3c-29.9,0-54.2,24.3-54.2,54.2h54.2V47.3z"/>
			<path class="st14" d="M156,101.5c0-26.2-18.6-48.1-43.3-53.1c-3.5-0.7-7.2-1.1-10.9-1.1v54.2H156z"/>
			<path class="st15" d="M101.7,155.8c29.9,0,54.2-24.3,54.2-54.2h-54.2V155.8z"/>
			<path class="st8" d="M47.5,101.5c0,29.9,24.3,54.2,54.2,54.2v-54.2H47.5z"/>
		</g>
		<path class="st9" d="M135.7,195.4v-77.9c0-18.1-14.8-32.8-32.8-32.8h0C84.8,84.6,70,99.4,70,117.4v77.9l32.9,3.9L135.7,195.4z"/>
		<g>
			<path class="st6" d="M113.1,186.1l-9.5-22.6c-0.3-0.6-1.1-0.6-1.4,0l-8.8,22.9c-0.2,0.6,0.4,1.3,1.1,0.9l5.9-3.2l0.2,14
				c0,0.7,0.6,1.3,1.3,1.3l3.2,0c0.7,0,1.3-0.6,1.3-1.3l-0.2-14l6,3C112.7,187.4,113.3,186.8,113.1,186.1z"/>
		</g>
		<g>
			<g>
				<path class="st6" d="M125.8,192.9l-5-12c-0.1-0.3-0.6-0.3-0.7,0l-6.8,17.6c-0.1,0.3,0.2,0.7,0.6,0.5l3.1-1.7l2.3,2
					c0,0.4,0.3,0.7,0.7,0.7l1.7,0c0.4,0,0.7-0.3,0.7-0.7l-0.1-7.4l3.2,1.6C125.6,193.6,125.9,193.3,125.8,192.9z"/>
			</g>
			<g>
				<path class="st6" d="M130.3,196.4l-5-12c-0.1-0.3-0.6-0.3-0.7,0l-4.7,12.1c-0.1,0.3,0.2,0.7,0.6,0.5l3.1-1.7l0.1,4.7
					c0,0.4,0.3,0.7,0.7,0.7l1.7,0c0.4,0,0.7-0.3,0.7-0.7l-0.1-4.7l3.2,1.6C130.1,197.1,130.5,196.7,130.3,196.4z"/>
			</g>
			<g>
				<path class="st6" d="M134.2,195.2l-4-9.6c-0.1-0.3-0.5-0.3-0.6,0l-3.7,9.7c-0.1,0.3,0.2,0.5,0.4,0.4l2.5-1.4l0.1,5.9
					c0,0.3,0.2,0.5,0.5,0.5l1.3,0c0.3,0,0.5-0.2,0.5-0.5l-0.1-5.9l2.5,1.3C134,195.7,134.3,195.5,134.2,195.2z"/>
			</g>
		</g>
		<g>
			<g>
				<path class="st6" d="M80.1,192.9l5-12c0.1-0.3,0.6-0.3,0.7,0l6.8,17.6c0.1,0.3-0.2,0.7-0.6,0.5l-3.1-1.7l-2.3,2
					c0,0.4-0.3,0.7-0.7,0.7l-1.7,0c-0.4,0-0.7-0.3-0.7-0.7l0.1-7.4l-3.2,1.6C80.3,193.6,80,193.3,80.1,192.9z"/>
			</g>
			<g>
				<path class="st6" d="M75.6,196.4l5-12c0.1-0.3,0.6-0.3,0.7,0l4.7,12.1c0.1,0.3-0.2,0.7-0.6,0.5l-3.1-1.7l-0.1,6
					c0,0.4-0.3,0.7-0.7,0.7l-1.7,0c-0.4,0-0.7-0.3-0.7-0.7l0.1-6l-3.2,1.6C75.8,197.1,75.4,196.7,75.6,196.4z"/>
			</g>
			<g>
				<path class="st6" d="M71.7,195.2l4-9.6c0.1-0.3,0.5-0.3,0.6,0l3.7,9.7c0.1,0.3-0.2,0.5-0.4,0.4l-2.5-1.4l-0.1,5.9
					c0,0.3-0.2,0.5-0.5,0.5l-1.3,0c-0.3,0-0.5-0.2-0.5-0.5l0.1-5.9l-2.5,1.3C71.9,195.7,71.6,195.5,71.7,195.2z"/>
			</g>
		</g>
		<g>
			<path class="st6" d="M133.1,105.3l-2.3,35.8c-0.5,3.1-2.5,5.8-5.3,7.2c-3.8,1.8-13,3.6-22.7,3.6S83.8,150,80,148.3
				c-2.9-1.3-4.9-4-5.3-7.2l-2.3-35.8c0,0,7-20.7,30.5-20.7S133.1,105.3,133.1,105.3z"/>
		</g>
		<g>
			<path class="st9" d="M35.1,149.8l-1.6-2.3l8.7-12.7l1.6,2.3l-1.8,2.6l3.3,4.8l3.1-0.7l1.6,2.3L35.1,149.8z M37.5,146.5l5.2-1.2
				l-2.2-3.2L37.5,146.5z"/>
			<path class="st9" d="M24.9,123.7l2.4,1.1c-0.8,1.7-0.9,3.3-0.4,4.8c0.5,1.3,1.3,2.2,2.6,2.7c1.2,0.5,2.5,0.6,3.7,0.1
				c0.9-0.3,1.6-0.8,2.2-1.5c0.5-0.7,0.9-1.4,1-2.3s0-1.7-0.3-2.6c-0.3-0.7-0.7-1.4-1.2-1.9c-0.5-0.5-1.3-1-2.3-1.4l1.1-2.4
				c1.3,0.6,2.4,1.3,3.1,2c0.7,0.7,1.3,1.7,1.7,2.8c0.8,2.1,0.8,4,0,5.9c-0.8,1.8-2.3,3.1-4.3,3.9c-1.3,0.5-2.6,0.7-3.9,0.5
				s-2.4-0.8-3.5-1.6c-1.1-0.9-1.8-2-2.3-3.3c-0.4-1.1-0.6-2.3-0.5-3.5S24.4,124.8,24.9,123.7z"/>
			<path class="st9" d="M21.9,104.3l2,1.7c-1.2,1.5-1.7,3-1.5,4.6c0.2,1.4,0.8,2.5,1.8,3.3s2.2,1.1,3.6,1c0.9-0.1,1.8-0.4,2.5-0.9
				s1.2-1.2,1.5-2c0.3-0.8,0.4-1.7,0.3-2.6c-0.1-0.8-0.3-1.5-0.7-2.1c-0.4-0.6-1-1.3-1.9-2l1.7-2.1c1.2,0.9,2,1.8,2.5,2.7
				s0.8,1.9,1,3.1c0.3,2.2-0.2,4.1-1.4,5.7c-1.2,1.6-2.9,2.5-5.1,2.8c-1.4,0.2-2.7,0-3.9-0.5s-2.2-1.3-3-2.4
				c-0.8-1.1-1.3-2.4-1.5-3.8c-0.1-1.2,0-2.3,0.3-3.5C20.5,106.2,21.1,105.2,21.9,104.3z"/>
			<path class="st9" d="M19.6,97.9l0.7-7.8l2.7,0.2l-0.4,5.1l2.6,0.2l0.4-5.1l2.6,0.2l-0.4,5.1l3.8,0.3l0.4-5.1l2.7,0.2l-0.7,7.8
				L19.6,97.9z"/>
			<path class="st9" d="M25.3,76.9l1.2,2.4c-1.1,0.4-1.8,1-2,1.7c-0.1,0.3-0.1,0.7,0.1,0.9s0.3,0.4,0.5,0.5c0.2,0.1,0.5,0,0.7-0.1
				c0.3-0.1,1.1-0.6,2.3-1.5c1.1-0.8,1.8-1.3,2.1-1.4c0.7-0.4,1.3-0.6,1.9-0.7c0.6-0.1,1.1-0.1,1.7,0.1c1.1,0.3,2,0.9,2.5,1.9
				s0.6,2.1,0.3,3.4c-0.3,1-0.7,1.8-1.4,2.4c-0.7,0.6-1.6,1-2.8,1.3l-0.8-2.6c1.4-0.3,2.2-1,2.5-1.8c0.1-0.5,0.1-0.9-0.1-1.2
				c-0.2-0.4-0.4-0.6-0.8-0.7c-0.3-0.1-0.7,0-1,0.1c-0.4,0.2-1,0.5-1.9,1.2c-1.6,1.2-2.8,1.9-3.6,2.2s-1.5,0.3-2.2,0.1
				c-1-0.3-1.7-0.8-2.2-1.8c-0.5-0.9-0.6-1.9-0.3-3c0.2-0.7,0.5-1.3,1-1.9S24.2,77.4,25.3,76.9z"/>
			<path class="st9" d="M30.6,64l0.8,2.6c-1.2,0.2-1.9,0.7-2.3,1.4C29,68.3,29,68.6,29,68.9c0.1,0.3,0.2,0.5,0.4,0.6
				c0.2,0.1,0.5,0.1,0.7,0.1c0.4-0.1,1.2-0.4,2.5-1.1c1.2-0.6,2-0.9,2.3-1c0.7-0.3,1.4-0.4,2-0.4c0.6,0,1.1,0.1,1.7,0.4
				c1.1,0.5,1.8,1.3,2.1,2.3c0.4,1.1,0.3,2.2-0.3,3.4c-0.4,0.9-1,1.6-1.8,2.1c-0.8,0.5-1.8,0.7-3,0.8l-0.3-2.7
				c1.4-0.1,2.4-0.6,2.7-1.4c0.2-0.4,0.2-0.8,0.1-1.2c-0.1-0.4-0.3-0.7-0.7-0.8c-0.3-0.1-0.6-0.2-1-0.1c-0.4,0.1-1.1,0.4-2,0.8
				c-1.8,0.9-3.1,1.4-4,1.5c-0.8,0.1-1.5,0-2.2-0.2c-0.9-0.4-1.5-1.1-1.9-2.1s-0.3-2,0.2-3c0.3-0.7,0.7-1.2,1.3-1.7
				C28.7,64.7,29.5,64.3,30.6,64z"/>
			<path class="st9" d="M32,57.9l1.5-2.3l12.1,7.8l-1.5,2.3L32,57.9z"/>
			<path class="st9" d="M48.1,59.5l-10.8-9.4l1.5-1.7c0.9-1,1.6-1.7,2.1-2c0.7-0.5,1.5-0.7,2.3-0.7c0.8,0,1.5,0.3,2.2,0.9
				c0.4,0.4,0.7,0.8,0.9,1.2c0.2,0.5,0.3,1,0.2,1.7c0.9-0.4,1.7-0.5,2.4-0.4c0.7,0.1,1.4,0.4,2,1c0.6,0.5,1,1.2,1.3,1.9
				s0.2,1.5,0.1,2.2c-0.2,0.7-0.7,1.5-1.4,2.4L48.1,59.5z M41.1,49.7l2.3,2l0.4-0.5c0.4-0.5,0.7-1,0.7-1.4s-0.2-0.8-0.5-1.1
				c-0.3-0.3-0.7-0.4-1.1-0.4c-0.4,0.1-0.8,0.3-1.2,0.8L41.1,49.7z M45.2,53.3l2.8,2.4l0.5-0.5c0.7-0.9,1.1-1.5,1.2-2
				s-0.1-0.9-0.6-1.3c-0.5-0.4-1-0.6-1.6-0.4s-1.2,0.6-1.9,1.4L45.2,53.3z"/>
			<path class="st9" d="M47.7,39.3l2.1-1.8l9.3,10.9L57,50.2L47.7,39.3z"/>
			<path class="st9" d="M54.9,33.5l2.3-1.5l6.4,9.8l3.3-2.2l1.4,2.2l-5.6,3.7L54.9,33.5z"/>
			<path class="st9" d="M65.2,27.4l2.4-1.2l6.3,12.9l-2.4,1.2L65.2,27.4z"/>
			<path class="st9" d="M72.2,24.1l7.5-2.6l0.9,2.6L78.1,25l3.8,11l-2.6,0.9l-3.8-11L73,26.7L72.2,24.1z"/>
			<path class="st9" d="M84.3,20.3l2.9-0.5l3.4,4.7l1.8-5.5l2.9-0.4l-2.9,8.7l1,6.1l-2.7,0.4l-1-6.1L84.3,20.3z"/>
			<path class="st9" d="M117.6,21.7l-2.2,1.5c-0.6-1.1-1.2-1.7-2-1.8c-0.4,0-0.7,0-0.9,0.2s-0.4,0.4-0.4,0.6c0,0.2,0,0.5,0.2,0.7
				c0.2,0.3,0.8,1,1.7,2.1c0.9,1,1.5,1.6,1.7,1.9c0.5,0.6,0.8,1.2,1,1.8c0.2,0.5,0.2,1.1,0.1,1.7c-0.2,1.2-0.7,2.1-1.6,2.7
				c-0.9,0.7-2,0.9-3.3,0.7c-1-0.1-1.9-0.5-2.5-1.1s-1.2-1.5-1.6-2.6L110,29c0.5,1.4,1.2,2.1,2.1,2.2c0.5,0.1,0.9,0,1.2-0.2
				s0.6-0.5,0.6-0.9c0-0.3,0-0.7-0.2-1c-0.2-0.4-0.7-0.9-1.4-1.7c-1.4-1.5-2.2-2.6-2.6-3.3s-0.5-1.5-0.4-2.1c0.1-1,0.6-1.8,1.5-2.4
				c0.8-0.6,1.8-0.8,2.9-0.7c0.7,0.1,1.4,0.4,2,0.8C116.3,20,117,20.7,117.6,21.7z"/>
			<path class="st9" d="M136.5,28.1l-2.4,1.1c-0.8-1.7-1.9-2.9-3.4-3.4c-1.3-0.5-2.5-0.4-3.7,0.2c-1.2,0.6-2,1.5-2.5,2.8
				c-0.3,0.9-0.4,1.8-0.3,2.6c0.1,0.8,0.5,1.6,1.1,2.2c0.6,0.7,1.3,1.1,2.2,1.5c0.7,0.3,1.5,0.4,2.2,0.3c0.7-0.1,1.6-0.3,2.6-0.8
				l1.1,2.4c-1.3,0.6-2.5,1-3.6,1s-2.1-0.1-3.2-0.5c-2.1-0.8-3.6-2-4.4-3.8c-0.9-1.8-0.9-3.8-0.2-5.8c0.5-1.3,1.2-2.4,2.2-3.3
				c1-0.8,2.2-1.4,3.5-1.6c1.4-0.2,2.7-0.1,4,0.4c1.1,0.4,2.1,1,3,1.9C135.4,25.9,136,26.9,136.5,28.1z"/>
			<path class="st9" d="M149.5,32.5c1.7,1.1,2.7,2.7,3.1,4.8s0,3.9-1.2,5.7c-1.2,1.7-2.8,2.8-4.8,3.2s-3.9,0-5.6-1.2
				c-1.8-1.2-2.8-2.8-3.2-4.9c-0.3-2,0.1-3.9,1.2-5.6c0.8-1.1,1.8-2,3-2.6c1.2-0.6,2.5-0.8,3.8-0.7
				C147.2,31.3,148.4,31.7,149.5,32.5z M148,34.7c-1.1-0.7-2.3-1-3.6-0.7c-1.3,0.3-2.3,1-3.1,2.2c-0.9,1.3-1.1,2.7-0.7,4.1
				c0.3,1.1,1,2,1.9,2.6c1.1,0.7,2.2,1,3.5,0.7c1.3-0.3,2.3-1,3.1-2.1c0.8-1.1,1-2.3,0.8-3.6C149.7,36.5,149.1,35.4,148,34.7z"/>
			<path class="st9" d="M160.6,41.8l1.9,2l-6.9,6.3c-0.6,0.5-1,1-1.1,1.3s-0.2,0.7-0.1,1c0.1,0.4,0.3,0.7,0.6,1.1
				c0.3,0.4,0.7,0.6,1.1,0.7c0.4,0.1,0.8,0.1,1.1,0c0.3-0.1,0.9-0.5,1.6-1.2l6.6-6l1.9,2l-6.3,5.8c-1.1,1-1.9,1.6-2.4,1.9
				c-0.5,0.3-1.1,0.4-1.8,0.4c-0.7,0-1.3-0.1-1.9-0.4s-1.2-0.7-1.7-1.3c-0.7-0.8-1.1-1.6-1.3-2.5s-0.1-1.7,0.2-2.4
				c0.3-0.7,1.1-1.7,2.4-2.8L160.6,41.8z"/>
			<path class="st9" d="M170.6,53.6l4.3,6.7l-2.3,1.4l-1.4-2.2l-9.8,6.3l-1.5-2.3l9.8-6.3l-1.4-2.1L170.6,53.6z"/>
			<path class="st9" d="M178.7,72.9l-2.4-1.1c0.6-1,0.8-1.9,0.5-2.6c-0.1-0.3-0.3-0.6-0.6-0.7c-0.3-0.1-0.5-0.2-0.7-0.1
				s-0.4,0.3-0.5,0.5c-0.2,0.3-0.5,1.2-0.9,2.6c-0.4,1.3-0.6,2.1-0.8,2.4c-0.3,0.7-0.6,1.3-1,1.7s-0.8,0.7-1.4,1
				c-1.1,0.5-2.1,0.5-3.2,0c-1-0.4-1.8-1.3-2.3-2.5c-0.4-0.9-0.5-1.9-0.4-2.8s0.6-1.8,1.4-2.7l2.2,1.6c-0.9,1.1-1.2,2.1-0.8,2.9
				c0.2,0.4,0.5,0.7,0.8,0.9c0.4,0.2,0.7,0.2,1.1,0.1c0.3-0.1,0.6-0.4,0.8-0.7c0.2-0.4,0.4-1,0.7-2.1c0.5-1.9,1.1-3.3,1.5-4
				c0.5-0.7,1-1.2,1.6-1.5c0.9-0.4,1.8-0.4,2.8,0c1,0.4,1.7,1.1,2.1,2.2c0.3,0.7,0.4,1.4,0.4,2.1C179.5,71,179.2,71.9,178.7,72.9z"
				/>
			<path class="st9" d="M183.5,100.9l-2-1.7c1.2-1.4,1.8-2.9,1.6-4.6c-0.1-1.4-0.7-2.5-1.7-3.3c-1-0.8-2.2-1.2-3.6-1.1
				c-1,0.1-1.8,0.4-2.5,0.9c-0.7,0.5-1.2,1.1-1.6,1.9c-0.3,0.8-0.5,1.7-0.4,2.6c0.1,0.8,0.3,1.5,0.6,2.1c0.4,0.6,1,1.3,1.8,2l-1.8,2
				c-1.1-1-1.9-1.9-2.4-2.8c-0.5-0.9-0.8-2-0.9-3.2c-0.2-2.2,0.3-4.1,1.6-5.7c1.3-1.5,3-2.4,5.2-2.6c1.4-0.1,2.7,0.1,3.9,0.6
				c1.2,0.5,2.1,1.4,2.9,2.5c0.8,1.1,1.2,2.4,1.4,3.8c0.1,1.2,0,2.3-0.4,3.5C184.9,99,184.3,100,183.5,100.9z"/>
			<path class="st9" d="M185,112l-0.4,2.7l-15,3.4l0.4-2.8l3.1-0.7l0.8-5.8l-2.8-1.6l0.4-2.8L185,112z M181.1,112.9l-4.6-2.6
				l-0.5,3.8L181.1,112.9z"/>
			<path class="st9" d="M181.5,128.3l-1,2.5l-10.5-0.8l7.9,7l-1,2.5l-14.2-3.4l1-2.4l9,2.1l-7.2-6.3l0.9-2.2l9.5,0.7l-7.7-5l1-2.5
				L181.5,128.3z"/>
			<path class="st9" d="M172.1,147.2l-1.7,2.3c-0.9,1.3-1.7,2.1-2.4,2.5c-0.6,0.4-1.3,0.6-2.1,0.5s-1.5-0.4-2.2-0.9
				c-0.8-0.6-1.3-1.3-1.6-2.1c-0.2-0.8-0.2-1.7,0.1-2.5c0.2-0.5,0.7-1.3,1.5-2.5l-4.9-3.6l1.6-2.2L172.1,147.2z M166,146.1l-0.5,0.7
				c-0.4,0.6-0.6,1-0.7,1.2s-0.1,0.5,0,0.8s0.3,0.5,0.5,0.7c0.4,0.3,0.9,0.4,1.4,0.2c0.3-0.1,0.8-0.6,1.3-1.2l0.5-0.6L166,146.1z"/>
		</g>
		<path class="st9" d="M165.6,164.7l-22-9c-0.6-0.2-1.2,0.4-0.9,1l9.6,21.7c0.3,0.6,1.2,0.6,1.4-0.1l1.8-6.2l9.7,9.4
			c0.5,0.5,1.3,0.5,1.7,0l2.1-2.2c0.5-0.5,0.5-1.3,0-1.7l-9.7-9.4l6.2-2C166.2,165.8,166.2,164.9,165.6,164.7z"/>
		<path class="st9" d="M54.5,179.4l9.3-22.7c0.3-0.6-0.4-1.2-1-1l-22.4,10c-0.6,0.3-0.6,1.2,0.1,1.4l6.4,1.9l-9.7,10
			c-0.5,0.5-0.5,1.3,0,1.8l2.3,2.2c0.5,0.5,1.3,0.5,1.8,0l9.7-10l2.1,6.4C53.3,180,54.2,180.1,54.5,179.4z"/>
		<g>
			<path class="st10" d="M86.7,62.7c-4.7,0.6-13.2,2.9-17.1,6.8c0,0-0.1,0.1-0.1,0.2c0,0-0.1,0.1-0.1,0.1c-3.9,3.9-6,12.7-6.4,17.4
				c-0.1,1.5,1.1,2.7,2.6,2.5c4.7-0.6,13.2-2.9,17.1-6.8c0,0,0.1-0.1,0.1-0.2c0,0,0.1-0.1,0.1-0.1c3.9-3.9,6-12.7,6.4-17.4
				C89.5,63.7,88.2,62.5,86.7,62.7z"/>
			<ellipse transform="matrix(0.7071 -0.7071 0.7071 0.7071 -31.7107 76.0864)" class="st16" cx="76" cy="76.3" rx="5.6" ry="5.6"/>
			<path class="st10" d="M74.6,74.9c-0.8,0.8-0.8,2.1,0,2.9c0.8,0.8,2.1,0.8,2.9,0s0.8-2.1,0-2.9C76.6,74.1,75.3,74.1,74.6,74.9z
				 M77.1,76.7c-0.2,0.2-0.5,0.2-0.7,0c-0.2-0.2-0.2-0.5,0-0.7c0.2-0.2,0.5-0.2,0.7,0C77.3,76.2,77.3,76.5,77.1,76.7z"/>
		</g>
		<g>
			<g>
				<path class="st6" d="M123.9,84.1l6.4,2.9l2.5,2.3c0.6,0.6,1.5,0.5,2.1-0.1l4.6-4.9c0.6-0.6,0.5-1.5-0.1-2.1l-2.5-2.3l-3.3-6.2
					c-0.5-0.9-1.7-1.1-2.4-0.3l-7.9,8.4C122.7,82.5,122.9,83.7,123.9,84.1z"/>
			</g>
			<g>
				<path class="st6" d="M121.9,72.4c-2.1,2.2-3.3,5.6-1,7.7c0.6,0.6,1.6,0.5,2.1-0.1c0.6-0.6,0.5-1.6-0.1-2.1
					c-0.7-0.7,0.3-2.5,1.2-3.4c0.9-1,2.6-2.1,3.3-1.4c0.6,0.6,1.6,0.5,2.1-0.1s0.5-1.6-0.1-2.1C127.2,68.8,123.9,70.2,121.9,72.4z"
					/>
			</g>
			<g>
				<path class="st6" d="M116.1,82.5c0.6,0.6,1.6,0.5,2.1-0.1c0.6-0.6,0.5-1.6-0.1-2.1c-2.5-2.3,0-6.7,2.3-9.2
					c2.3-2.4,6.5-5.2,9-2.9c0.6,0.6,1.6,0.5,2.1-0.1c0.6-0.6,0.5-1.6-0.1-2.1c-3.8-3.6-9.5-0.9-13.2,3
					C114.6,73,112.3,78.9,116.1,82.5z"/>
			</g>
		</g>
		<path class="st7" d="M102.7,8c52.3,0,94.7,42.4,94.7,94.7s-42.4,94.7-94.7,94.7C50.4,197.3,8,154.9,8,102.7S50.4,8,102.7,8
			 M102.7,0C46.1,0,0,46.1,0,102.7s46.1,102.7,102.7,102.7c56.6,0,102.7-46.1,102.7-102.7S159.3,0,102.7,0L102.7,0z"/>
	</g>
</g>
<g id="Layer_2">
</g>
<g id="Layer_3">
</g>
<g id="Layer_4">
</g>
</svg>
