<?xml version="1.0" encoding="UTF-8" standalone="no"?>
<svg width="33px" height="29px" viewBox="0 0 33 29" version="1.1" xmlns="http://www.w3.org/2000/svg" xmlns:xlink="http://www.w3.org/1999/xlink">
    <!-- Generator: Sketch 43.2 (39069) - http://www.bohemiancoding.com/sketch -->
    <title>speaker</title>
    <desc>Created with Sketch.</desc>
    <defs></defs>
    <g id="Page-1" stroke="none" stroke-width="1" fill="none" fill-rule="evenodd">
        <g id="homepage" transform="translate(-623.000000, -80.000000)" fill="#FFA11B">
            <g id="nav-bar">
                <g id="speaker" transform="translate(623.000000, 80.000000)">
                    <path d="M6.02705376,7.94505827 L1.8394812,7.94505827 C0.823651757,7.94505827 -0.000231818676,8.77508318 -0.000231818676,9.79952834 L-0.000231818676,18.2418538 C-0.000231818676,19.2662989 0.823651757,20.0963239 1.8394812,20.0963239 L6.02705376,20.0963239 L14.2468804,22.9785106 C15.4426011,23.3972619 16.6907129,22.5027418 16.6907129,21.2268589 L16.6907129,6.81452321 C16.6907129,5.53864033 15.4426011,4.64412024 14.2468804,5.06287154 L6.02705376,7.94505827 Z" id="Fill-1"></path>
                    <path d="M25.9636917,14.0206911 C25.9636917,10.2393107 24.2227335,6.16910407 20.4000435,6.16910407 C19.3758686,6.16910407 18.5454941,7.00613932 18.5454941,8.03852954 C18.5454941,9.07091976 19.3758686,9.90795502 20.4000435,9.90795502 C21.6653098,9.90795502 22.2545929,12.3620433 22.2545929,14.0206911 C22.2545929,15.6793388 21.6653098,18.1334271 20.4000435,18.1334271 C19.3758686,18.1334271 18.5454941,18.9704624 18.5454941,20.0028526 C18.5454941,21.0352428 19.3758686,21.8722781 20.4000435,21.8722781 C24.2227335,21.8722781 25.9636917,17.8020714 25.9636917,14.0206911" id="Fill-4"></path>
                    <path d="M22.6602756,0 C21.6361007,0 20.8057262,0.837035256 20.8057262,1.86942547 C20.8057262,2.90181569 21.6361007,3.73885095 22.6602756,3.73885095 C26.8269845,3.73885095 28.3398332,9.88739134 28.3398332,14.0206911 C28.3398332,18.1539908 26.8269845,24.3025312 22.6602756,24.3025312 C21.6361007,24.3025312 20.8057262,25.1395664 20.8057262,26.1719566 C20.8057262,27.2043469 21.6361007,28.0413821 22.6602756,28.0413821 C29.1108621,28.0413821 32.048932,20.7735232 32.048932,14.0206911 C32.048932,7.26785889 29.1108621,0 22.6602756,0" id="Fill-6"></path>
                </g>
            </g>
        </g>
    </g>
</svg>